<?xml version="1.0" standalone="no"?>
<!DOCTYPE svg PUBLIC "-//W3C//DTD SVG 20010904//EN"
 "http://www.w3.org/TR/2001/REC-SVG-20010904/DTD/svg10.dtd">
<svg version="1.0" xmlns="http://www.w3.org/2000/svg"
 width="260.000000pt" height="260.000000pt" viewBox="0 0 260.000000 260.000000"
 preserveAspectRatio="xMidYMid meet">
<metadata>
Created by potrace 1.11, written by Peter Selinger 2001-2013
</metadata>
<g transform="translate(0.000000,260.000000) scale(0.100000,-0.100000)"
fill="#000000" stroke="none">
<path d="M260 2199 c0 -16 72 -41 158 -55 l42 -6 0 -799 0 -799 -28 -6 c-118
-25 -167 -41 -167 -54 0 -11 41 -14 253 -14 221 -1 252 1 252 14 0 11 -21 21
-72 34 -40 10 -81 19 -90 20 -10 1 -21 6 -25 10 -4 4 -8 343 -9 753 0 613 2
742 13 727 7 -10 13 -21 13 -25 0 -6 219 -526 284 -674 8 -16 21 -48 30 -70
10 -22 70 -164 134 -315 l117 -275 45 -5 c79 -9 95 -3 115 43 16 38 133 306
175 402 10 22 95 218 190 435 95 217 183 418 196 445 l23 50 1 -747 0 -746
-52 -11 c-111 -23 -148 -35 -148 -48 0 -16 -23 -15 333 -17 258 -1 297 1 295
14 -3 15 -97 45 -162 53 l-31 3 -2 802 c-2 752 -1 802 15 803 25 1 48 6 119
25 48 13 63 21 61 33 -3 14 -31 16 -231 16 l-228 0 -14 -30 c-8 -16 -53 -120
-100 -230 -47 -110 -99 -228 -116 -263 -16 -35 -29 -65 -29 -67 0 -5 -257
-594 -309 -708 l-26 -58 -169 413 c-93 227 -177 431 -187 453 -19 43 -151 362
-178 432 -9 23 -20 46 -25 50 -4 4 -111 8 -237 8 -203 0 -229 -1 -229 -16z"/>
</g>
</svg>
